<svg width="30" height="35" viewBox="0 0 30 35" fill="none" xmlns="http://www.w3.org/2000/svg">
<path id="Subtraction 124" d="M25.411 34.561H4.363C3.20407 34.5578 2.09374 34.0949 1.27575 33.2739C0.457758 32.4529 -0.00106211 31.3409 1.84629e-06 30.182C-0.000164206 29.9475 0.0182266 29.7135 0.0550018 29.482L1.288 13.88C1.35345 12.7674 1.84092 11.7218 2.65095 10.9563C3.46098 10.1909 4.53254 9.76336 5.647 9.76095H6.816C6.72066 9.25148 6.67279 8.73427 6.673 8.21595C6.673 6.03746 7.5384 3.9482 9.07883 2.40778C10.6193 0.867354 12.7085 0.00195313 14.887 0.00195312C17.0655 0.00195313 19.1548 0.867354 20.6952 2.40778C22.2356 3.9482 23.101 6.03746 23.101 8.21595C23.1012 8.73427 23.0534 9.25149 22.958 9.76095H24.127C25.2438 9.76287 26.3174 10.1922 27.1277 10.9607C27.9379 11.7293 28.4232 12.7788 28.484 13.894L29.72 29.485C29.7567 29.7165 29.7751 29.9505 29.775 30.185C29.7753 31.3432 29.3162 32.4543 28.4985 33.2746C27.6809 34.0949 26.5712 34.5575 25.413 34.561H25.411ZM21.3 13.88C20.9948 13.8798 20.6964 13.9701 20.4425 14.1395C20.1886 14.3089 19.9907 14.5498 19.8737 14.8318C19.7568 15.1137 19.7261 15.424 19.7855 15.7234C19.845 16.0227 19.9918 16.2978 20.2076 16.5137C20.4233 16.7296 20.6983 16.8766 20.9976 16.9362C21.2969 16.9958 21.6072 16.9654 21.8893 16.8486C22.1713 16.7318 22.4123 16.5341 22.5819 16.2803C22.7515 16.0265 22.842 15.7282 22.842 15.423C22.842 15.0139 22.6796 14.6216 22.3904 14.3322C22.1013 14.0429 21.7091 13.8802 21.3 13.88ZM8.466 13.88C8.16078 13.8794 7.86225 13.9693 7.60815 14.1384C7.35405 14.3075 7.15582 14.5482 7.03851 14.8299C6.92121 15.1117 6.89011 15.4219 6.94914 15.7214C7.00818 16.0209 7.1547 16.2961 7.37017 16.5122C7.58564 16.7284 7.86039 16.8758 8.15965 16.9358C8.45891 16.9958 8.76925 16.9657 9.0514 16.8494C9.33356 16.733 9.57486 16.5355 9.74478 16.282C9.9147 16.0284 10.0056 15.7302 10.006 15.425C10.0065 15.0166 9.84517 14.6247 9.55725 14.3351C9.26934 14.0455 8.87836 13.8818 8.47 13.88H8.466ZM14.887 2.80895C13.4559 2.8124 12.0846 3.3838 11.0746 4.39764C10.0645 5.41148 9.49814 6.78482 9.5 8.21595V9.76095H20.278V8.21395C20.2799 6.7823 19.7131 5.40851 18.7024 4.39458C17.6917 3.38066 16.3197 2.8096 14.888 2.80695L14.887 2.80895Z" fill="url(#paint0_linear_1_2323)"/>
<defs>
<linearGradient id="paint0_linear_1_2323" x1="31.5615" y1="0.00195399" x2="-7.8221" y2="26.4312" gradientUnits="userSpaceOnUse">
<stop offset="0.01" stop-color="#FC00FF"/>
<stop offset="1" stop-color="#00DBDE"/>
</linearGradient>
</defs>
</svg>
